<?xml version="1.0" encoding="UTF-8"?>
<svg width="259px" height="192px" viewBox="0 0 259 192" version="1.1" xmlns="http://www.w3.org/2000/svg" xmlns:xlink="http://www.w3.org/1999/xlink">
    <!-- Generator: Sketch 62 (91390) - https://sketch.com -->
    <title>Untitled</title>
    <desc>Created with Sketch.</desc>
    <g id="Page-1" stroke="none" stroke-width="1" fill="none" fill-rule="evenodd">
        <path d="M259,192 L259,102.149466 L205.564912,102.149466 C204.65731,93.0391459 206.472515,83.5871886 211.010526,73.7935943 C218.952047,55.3451957 234.381287,42.5907473 257.298246,35.5302491 L257.298246,35.5302491 L257.298246,0 C227.120468,6.14946619 203.692982,19.0177936 187.015789,38.6049822 C170.338596,58.1921708 162,85.2953737 162,119.914591 L162,119.914591 L162,192 L259,192 Z M97,192 L97,102.149466 L43.5649123,102.149466 C42.8842105,92.1281139 44.5859649,82.4483986 48.6701754,73.1103203 C56.6116959,55.3451957 72.154386,42.8185053 95.2982456,35.5302491 L95.2982456,35.5302491 L95.2982456,0 C64.2128655,6.14946619 40.5584795,19.1316726 24.3350877,38.9466192 C8.11169591,58.7615658 0,85.7508897 0,119.914591 L0,119.914591 L0,192 L97,192 Z" id="“" fill="#E4E5E6" fill-rule="nonzero"></path>
    </g>
</svg>